<svg xmlns="http://www.w3.org/2000/svg" xmlns:xlink="http://www.w3.org/1999/xlink" version="1.1" x="0px" y="0px" viewBox="0 0 100 100" style="enable-background:new 0 0 100 100;" xml:space="preserve" aria-hidden="true" width="100px" height="100px"><defs><linearGradient class="cerosgradient" data-cerosgradient="true" id="CerosGradient_id2c6b82009" x1="50%" y1="100%" x2="50%" y2="0%"><stop offset="0%" stop-color="#d1d1d1"/><stop offset="100%" stop-color="#d1d1d1"/></linearGradient><linearGradient/></defs><style type="text/css">
	.st0-id2c6b82009{stroke:#000000;stroke-miterlimit:10;}
	.st1-id2c6b82009{fill:none;stroke:#000000;stroke-miterlimit:10;}
</style><path class="st0-id2c6b82009" d="M84.3,28.7H15.7c-2.1,0-3.7-1.7-3.7-3.7v0c0-2.1,1.7-3.7,3.7-3.7h68.5c2.1,0,3.7,1.7,3.7,3.7v0  C88,27,86.3,28.7,84.3,28.7z"/><path class="st0-id2c6b82009" d="M84.3,53.7H15.7c-2.1,0-3.7-1.7-3.7-3.7v0c0-2.1,1.7-3.7,3.7-3.7h68.5c2.1,0,3.7,1.7,3.7,3.7v0  C88,52,86.3,53.7,84.3,53.7z"/><path class="st0-id2c6b82009" d="M84.3,78.7H15.7c-2.1,0-3.7-1.7-3.7-3.7v0c0-2.1,1.7-3.7,3.7-3.7h68.5c2.1,0,3.7,1.7,3.7,3.7v0  C88,77,86.3,78.7,84.3,78.7z"/><path class="st1-id2c6b82009" d="M12,24.9c0,0-2.4,3.7,9.1,4.4c14.7,0.9,60.9-1.5,60.9-1.5s7.3,2.3,6.7-2.9C88,19.7,79,21.2,79,21.2l-63.6-0.8  C15.4,20.4,12.7,21.2,12,24.9z"/><path class="st1-id2c6b82009" d="M12,49.9c0,0-4.3,5.3,14.8,3.7c19.1-1.6,57.6,0,58,0c0.4-0.1,4.5-0.1,2.8-5.3c-1.7-5.2-21.9-2.1-21.9-2.1  l-51.3,0.3C14.4,46.5,11.4,48,12,49.9z"/><path class="st1-id2c6b82009" d="M12,74.9c0,0-2.5-5.4,10.6-3.7s61.6,0,61.6,0s5.6,0.5,3.7,3.7c-1.8,3.2,4.5,4.5-35,3.7  c-39.5-0.8-37.4,2.1-39.5-0.8S11.4,77,12,74.9z"/></svg>