<svg xmlns="http://www.w3.org/2000/svg" xmlns:xlink="http://www.w3.org/1999/xlink" version="1.1" x="0px" y="0px" viewBox="0 0 90 90" enable-background="new 0 0 90 90" xml:space="preserve" aria-hidden="true" width="90px" height="90px"><defs><linearGradient class="cerosgradient" data-cerosgradient="true" id="CerosGradient_idde28ae3c1" x1="50%" y1="100%" x2="50%" y2="0%"><stop offset="0%" stop-color="#d1d1d1"/><stop offset="100%" stop-color="#d1d1d1"/></linearGradient><linearGradient/></defs><path fill-rule="evenodd" clip-rule="evenodd" d="M4.098,24.172c0.05-0.049,0.104-0.1,0.158-0.148L27.35,5.545  c0.814-0.646,1.736-0.911,2.762-0.796c1.026,0.117,1.865,0.583,2.511,1.398c0.651,0.813,0.921,1.733,0.807,2.762  c-0.118,1.029-0.584,1.87-1.398,2.523L17.486,23.069h40.141c8.114,0.001,15.039,2.869,20.774,8.604  c5.734,5.752,8.603,12.684,8.603,20.798c0,8.115-2.867,15.04-8.603,20.774c-5.735,5.735-12.66,8.603-20.774,8.604H22.828  c-1.04,0-1.926-0.367-2.661-1.104c-0.734-0.732-1.102-1.619-1.102-2.658c0-1.038,0.368-1.925,1.102-2.66  c0.735-0.735,1.622-1.102,2.661-1.102h34.799c6.037,0.002,11.188-2.132,15.455-6.398c4.267-4.266,6.399-9.418,6.399-15.456  c0-6.039-2.133-11.199-6.399-15.479c-4.268-4.267-9.418-6.4-15.455-6.399h-40.21l15.412,12.445c0.806,0.658,1.263,1.502,1.375,2.534  c0.11,1.026-0.164,1.943-0.82,2.751c-0.652,0.811-1.492,1.272-2.521,1.386c-1.028,0.112-1.948-0.157-2.762-0.807L4.393,29.765  c-0.212-0.175-0.397-0.36-0.557-0.559c-0.245-0.295-0.435-0.613-0.568-0.954c-0.017-0.04-0.031-0.077-0.045-0.114  c-0.008-0.017-0.016-0.037-0.022-0.057C3.178,28.02,3.158,27.959,3.143,27.9c-0.103-0.34-0.152-0.692-0.146-1.058l0.011-0.317  c0.002-0.038,0.006-0.075,0.012-0.114l0.112-0.59c0.043-0.167,0.1-0.329,0.172-0.488c0.027-0.065,0.056-0.129,0.091-0.193  l0.204-0.363C3.74,24.561,3.906,24.36,4.098,24.172z"/></svg>